<svg width="414" height="736" viewBox="0 0 414 736" fill="none" xmlns="http://www.w3.org/2000/svg">
<rect width="414" height="736" fill="black"/>
<path d="M124.098 436.547H120.987C120.93 436.144 120.814 435.787 120.639 435.474C120.464 435.157 120.239 434.887 119.964 434.665C119.69 434.442 119.373 434.272 119.013 434.153C118.658 434.035 118.272 433.976 117.855 433.976C117.102 433.976 116.446 434.163 115.888 434.537C115.329 434.906 114.896 435.446 114.588 436.156C114.28 436.862 114.126 437.719 114.126 438.727C114.126 439.764 114.28 440.635 114.588 441.341C114.901 442.046 115.336 442.579 115.895 442.939C116.454 443.299 117.1 443.479 117.834 443.479C118.246 443.479 118.627 443.424 118.977 443.315C119.332 443.206 119.647 443.048 119.922 442.839C120.196 442.626 120.424 442.368 120.604 442.065C120.788 441.762 120.916 441.417 120.987 441.028L124.098 441.043C124.018 441.71 123.816 442.354 123.494 442.974C123.177 443.59 122.749 444.142 122.209 444.629C121.674 445.112 121.035 445.496 120.291 445.78C119.553 446.059 118.717 446.199 117.784 446.199C116.487 446.199 115.327 445.905 114.304 445.318C113.286 444.731 112.481 443.881 111.889 442.768C111.302 441.656 111.009 440.309 111.009 438.727C111.009 437.141 111.307 435.792 111.903 434.679C112.5 433.566 113.31 432.719 114.332 432.136C115.355 431.549 116.506 431.256 117.784 431.256C118.627 431.256 119.408 431.374 120.128 431.611C120.852 431.848 121.494 432.193 122.053 432.648C122.611 433.098 123.066 433.649 123.416 434.303C123.771 434.956 123.999 435.704 124.098 436.547ZM131.175 446.213C130.072 446.213 129.118 445.979 128.313 445.51C127.513 445.036 126.895 444.378 126.46 443.536C126.024 442.688 125.806 441.705 125.806 440.588C125.806 439.461 126.024 438.476 126.46 437.634C126.895 436.786 127.513 436.128 128.313 435.659C129.118 435.186 130.072 434.949 131.175 434.949C132.279 434.949 133.23 435.186 134.031 435.659C134.835 436.128 135.456 436.786 135.891 437.634C136.327 438.476 136.545 439.461 136.545 440.588C136.545 441.705 136.327 442.688 135.891 443.536C135.456 444.378 134.835 445.036 134.031 445.51C133.23 445.979 132.279 446.213 131.175 446.213ZM131.19 443.869C131.692 443.869 132.111 443.727 132.447 443.443C132.783 443.154 133.036 442.761 133.207 442.264C133.382 441.767 133.469 441.201 133.469 440.567C133.469 439.932 133.382 439.366 133.207 438.869C133.036 438.372 132.783 437.979 132.447 437.69C132.111 437.402 131.692 437.257 131.19 437.257C130.683 437.257 130.257 437.402 129.911 437.69C129.57 437.979 129.312 438.372 129.137 438.869C128.967 439.366 128.881 439.932 128.881 440.567C128.881 441.201 128.967 441.767 129.137 442.264C129.312 442.761 129.57 443.154 129.911 443.443C130.257 443.727 130.683 443.869 131.19 443.869ZM141.538 439.693V446H138.512V435.091H141.396V437.016H141.523C141.765 436.381 142.17 435.879 142.738 435.51C143.306 435.136 143.995 434.949 144.805 434.949C145.562 434.949 146.223 435.115 146.786 435.446C147.35 435.777 147.788 436.251 148.1 436.866C148.413 437.477 148.569 438.206 148.569 439.054V446H145.543V439.594C145.548 438.926 145.378 438.405 145.032 438.031C144.686 437.652 144.21 437.463 143.604 437.463C143.197 437.463 142.837 437.551 142.525 437.726C142.217 437.901 141.976 438.157 141.8 438.493C141.63 438.824 141.542 439.224 141.538 439.693ZM156.756 435.091V437.364H150.186V435.091H156.756ZM151.678 432.477H154.703V442.648C154.703 442.927 154.746 443.145 154.831 443.301C154.917 443.453 155.035 443.559 155.186 443.621C155.343 443.682 155.523 443.713 155.726 443.713C155.868 443.713 156.01 443.701 156.152 443.678C156.294 443.649 156.403 443.628 156.479 443.614L156.955 445.865C156.803 445.912 156.59 445.967 156.316 446.028C156.041 446.095 155.707 446.135 155.314 446.149C154.585 446.178 153.946 446.08 153.397 445.858C152.852 445.635 152.428 445.29 152.125 444.821C151.822 444.352 151.673 443.76 151.678 443.045V432.477ZM158.727 446V435.091H161.66V436.994H161.774C161.973 436.317 162.306 435.806 162.775 435.46C163.244 435.11 163.784 434.935 164.395 434.935C164.546 434.935 164.709 434.944 164.885 434.963C165.06 434.982 165.214 435.008 165.346 435.041V437.726C165.204 437.683 165.008 437.645 164.757 437.612C164.506 437.579 164.276 437.562 164.068 437.562C163.623 437.562 163.225 437.66 162.875 437.854C162.529 438.043 162.254 438.308 162.051 438.649C161.852 438.99 161.752 439.383 161.752 439.828V446H158.727ZM171.332 446.213C170.228 446.213 169.274 445.979 168.469 445.51C167.669 445.036 167.051 444.378 166.616 443.536C166.18 442.688 165.962 441.705 165.962 440.588C165.962 439.461 166.18 438.476 166.616 437.634C167.051 436.786 167.669 436.128 168.469 435.659C169.274 435.186 170.228 434.949 171.332 434.949C172.435 434.949 173.387 435.186 174.187 435.659C174.992 436.128 175.612 436.786 176.048 437.634C176.483 438.476 176.701 439.461 176.701 440.588C176.701 441.705 176.483 442.688 176.048 443.536C175.612 444.378 174.992 445.036 174.187 445.51C173.387 445.979 172.435 446.213 171.332 446.213ZM171.346 443.869C171.848 443.869 172.267 443.727 172.603 443.443C172.939 443.154 173.192 442.761 173.363 442.264C173.538 441.767 173.626 441.201 173.626 440.567C173.626 439.932 173.538 439.366 173.363 438.869C173.192 438.372 172.939 437.979 172.603 437.69C172.267 437.402 171.848 437.257 171.346 437.257C170.839 437.257 170.413 437.402 170.067 437.69C169.727 437.979 169.469 438.372 169.293 438.869C169.123 439.366 169.038 439.932 169.038 440.567C169.038 441.201 169.123 441.767 169.293 442.264C169.469 442.761 169.727 443.154 170.067 443.443C170.413 443.727 170.839 443.869 171.346 443.869ZM181.694 431.455V446H178.668V431.455H181.694ZM189.089 446.213C187.967 446.213 187.001 445.986 186.191 445.531C185.386 445.072 184.766 444.423 184.331 443.585C183.895 442.742 183.677 441.746 183.677 440.595C183.677 439.473 183.895 438.488 184.331 437.641C184.766 436.793 185.379 436.133 186.17 435.659C186.966 435.186 187.898 434.949 188.968 434.949C189.688 434.949 190.358 435.065 190.978 435.297C191.603 435.524 192.148 435.867 192.612 436.327C193.081 436.786 193.445 437.364 193.706 438.06C193.966 438.751 194.096 439.561 194.096 440.489V441.32H184.885V439.445H191.248C191.248 439.009 191.154 438.623 190.964 438.287C190.775 437.951 190.512 437.688 190.176 437.499C189.844 437.304 189.458 437.207 189.018 437.207C188.559 437.207 188.152 437.314 187.797 437.527C187.446 437.735 187.172 438.017 186.973 438.372C186.774 438.723 186.672 439.113 186.667 439.544V441.327C186.667 441.866 186.767 442.333 186.966 442.726C187.169 443.119 187.456 443.422 187.825 443.635C188.194 443.848 188.632 443.955 189.139 443.955C189.475 443.955 189.783 443.907 190.062 443.812C190.342 443.718 190.581 443.576 190.779 443.386C190.978 443.197 191.13 442.965 191.234 442.69L194.032 442.875C193.89 443.547 193.599 444.134 193.159 444.636C192.723 445.134 192.16 445.522 191.468 445.801C190.782 446.076 189.989 446.213 189.089 446.213ZM200.756 446V431.455H210.387V433.99H203.832V437.456H209.748V439.991H203.832V446H200.756ZM212.399 446V435.091H215.424V446H212.399ZM213.919 433.685C213.469 433.685 213.083 433.536 212.761 433.237C212.444 432.934 212.285 432.572 212.285 432.151C212.285 431.734 212.444 431.376 212.761 431.078C213.083 430.775 213.469 430.624 213.919 430.624C214.368 430.624 214.752 430.775 215.069 431.078C215.391 431.376 215.552 431.734 215.552 432.151C215.552 432.572 215.391 432.934 215.069 433.237C214.752 433.536 214.368 433.685 213.919 433.685ZM220.874 439.693V446H217.848V435.091H220.732V437.016H220.859C221.101 436.381 221.506 435.879 222.074 435.51C222.642 435.136 223.331 434.949 224.141 434.949C224.898 434.949 225.559 435.115 226.122 435.446C226.686 435.777 227.124 436.251 227.436 436.866C227.749 437.477 227.905 438.206 227.905 439.054V446H224.879V439.594C224.884 438.926 224.714 438.405 224.368 438.031C224.022 437.652 223.546 437.463 222.94 437.463C222.533 437.463 222.173 437.551 221.861 437.726C221.553 437.901 221.312 438.157 221.136 438.493C220.966 438.824 220.878 439.224 220.874 439.693ZM233.4 446.206C232.704 446.206 232.084 446.085 231.539 445.844C230.995 445.598 230.564 445.235 230.247 444.757C229.934 444.274 229.778 443.673 229.778 442.953C229.778 442.347 229.889 441.838 230.112 441.426C230.334 441.014 230.637 440.683 231.021 440.432C231.404 440.181 231.84 439.991 232.328 439.864C232.82 439.736 233.336 439.646 233.876 439.594C234.511 439.527 235.022 439.466 235.41 439.409C235.798 439.348 236.08 439.258 236.255 439.139C236.431 439.021 236.518 438.846 236.518 438.614V438.571C236.518 438.121 236.376 437.773 236.092 437.527C235.813 437.281 235.415 437.158 234.899 437.158C234.354 437.158 233.921 437.278 233.599 437.52C233.277 437.757 233.064 438.055 232.96 438.415L230.162 438.188C230.304 437.525 230.583 436.952 231 436.469C231.416 435.981 231.954 435.607 232.612 435.347C233.275 435.081 234.042 434.949 234.913 434.949C235.519 434.949 236.099 435.02 236.653 435.162C237.212 435.304 237.707 435.524 238.137 435.822C238.573 436.121 238.916 436.504 239.167 436.973C239.418 437.437 239.544 437.993 239.544 438.642V446H236.674V444.487H236.589C236.414 444.828 236.18 445.129 235.886 445.389C235.592 445.645 235.24 445.846 234.828 445.993C234.416 446.135 233.94 446.206 233.4 446.206ZM234.267 444.118C234.712 444.118 235.105 444.03 235.446 443.855C235.787 443.675 236.054 443.434 236.248 443.131C236.442 442.828 236.539 442.484 236.539 442.101V440.943C236.445 441.005 236.315 441.062 236.149 441.114C235.988 441.161 235.806 441.206 235.602 441.249C235.398 441.286 235.195 441.322 234.991 441.355C234.788 441.384 234.603 441.41 234.437 441.433C234.082 441.485 233.772 441.568 233.507 441.682C233.242 441.795 233.036 441.949 232.889 442.143C232.742 442.333 232.669 442.57 232.669 442.854C232.669 443.266 232.818 443.58 233.116 443.798C233.419 444.011 233.803 444.118 234.267 444.118ZM244.917 439.693V446H241.891V435.091H244.775V437.016H244.902C245.144 436.381 245.549 435.879 246.117 435.51C246.685 435.136 247.374 434.949 248.184 434.949C248.941 434.949 249.602 435.115 250.165 435.446C250.729 435.777 251.167 436.251 251.479 436.866C251.792 437.477 251.948 438.206 251.948 439.054V446H248.922V439.594C248.927 438.926 248.757 438.405 248.411 438.031C248.065 437.652 247.589 437.463 246.983 437.463C246.576 437.463 246.216 437.551 245.904 437.726C245.596 437.901 245.355 438.157 245.179 438.493C245.009 438.824 244.921 439.224 244.917 439.693ZM259.261 446.213C258.144 446.213 257.183 445.976 256.378 445.503C255.578 445.025 254.962 444.362 254.531 443.514C254.105 442.667 253.892 441.691 253.892 440.588C253.892 439.471 254.107 438.491 254.538 437.648C254.974 436.8 255.592 436.14 256.392 435.666C257.192 435.188 258.144 434.949 259.247 434.949C260.199 434.949 261.032 435.122 261.747 435.467C262.462 435.813 263.028 436.298 263.445 436.923C263.861 437.548 264.091 438.282 264.134 439.125H261.278C261.198 438.58 260.985 438.143 260.639 437.811C260.298 437.475 259.851 437.307 259.297 437.307C258.828 437.307 258.419 437.435 258.068 437.69C257.723 437.941 257.453 438.308 257.259 438.791C257.064 439.274 256.967 439.859 256.967 440.545C256.967 441.241 257.062 441.833 257.251 442.321C257.446 442.809 257.718 443.18 258.068 443.436C258.419 443.692 258.828 443.82 259.297 443.82C259.643 443.82 259.953 443.749 260.227 443.607C260.507 443.464 260.736 443.259 260.916 442.989C261.101 442.714 261.222 442.385 261.278 442.001H264.134C264.086 442.835 263.859 443.569 263.452 444.203C263.049 444.833 262.493 445.325 261.783 445.68C261.072 446.036 260.232 446.213 259.261 446.213ZM271.042 446.213C269.92 446.213 268.954 445.986 268.145 445.531C267.34 445.072 266.719 444.423 266.284 443.585C265.848 442.742 265.63 441.746 265.63 440.595C265.63 439.473 265.848 438.488 266.284 437.641C266.719 436.793 267.333 436.133 268.123 435.659C268.919 435.186 269.851 434.949 270.922 434.949C271.641 434.949 272.311 435.065 272.931 435.297C273.556 435.524 274.101 435.867 274.565 436.327C275.034 436.786 275.398 437.364 275.659 438.06C275.919 438.751 276.049 439.561 276.049 440.489V441.32H266.838V439.445H273.201C273.201 439.009 273.107 438.623 272.917 438.287C272.728 437.951 272.465 437.688 272.129 437.499C271.797 437.304 271.412 437.207 270.971 437.207C270.512 437.207 270.105 437.314 269.75 437.527C269.399 437.735 269.125 438.017 268.926 438.372C268.727 438.723 268.625 439.113 268.62 439.544V441.327C268.62 441.866 268.72 442.333 268.919 442.726C269.122 443.119 269.409 443.422 269.778 443.635C270.147 443.848 270.585 443.955 271.092 443.955C271.428 443.955 271.736 443.907 272.015 443.812C272.295 443.718 272.534 443.576 272.733 443.386C272.931 443.197 273.083 442.965 273.187 442.69L275.985 442.875C275.843 443.547 275.552 444.134 275.112 444.636C274.676 445.134 274.113 445.522 273.422 445.801C272.735 446.076 271.942 446.213 271.042 446.213ZM278.024 446V435.091H281.049V446H278.024ZM279.544 433.685C279.094 433.685 278.708 433.536 278.386 433.237C278.069 432.934 277.91 432.572 277.91 432.151C277.91 431.734 278.069 431.376 278.386 431.078C278.708 430.775 279.094 430.624 279.544 430.624C279.993 430.624 280.377 430.775 280.694 431.078C281.016 431.376 281.177 431.734 281.177 432.151C281.177 432.572 281.016 432.934 280.694 433.237C280.377 433.536 279.993 433.685 279.544 433.685ZM283.473 446V435.091H286.406V436.994H286.52C286.719 436.317 287.053 435.806 287.521 435.46C287.99 435.11 288.53 434.935 289.141 434.935C289.292 434.935 289.455 434.944 289.631 434.963C289.806 434.982 289.96 435.008 290.092 435.041V437.726C289.95 437.683 289.754 437.645 289.503 437.612C289.252 437.579 289.022 437.562 288.814 437.562C288.369 437.562 287.971 437.66 287.621 437.854C287.275 438.043 287 438.308 286.797 438.649C286.598 438.99 286.499 439.383 286.499 439.828V446H283.473ZM296.078 446.213C294.975 446.213 294.02 445.979 293.216 445.51C292.415 445.036 291.797 444.378 291.362 443.536C290.926 442.688 290.708 441.705 290.708 440.588C290.708 439.461 290.926 438.476 291.362 437.634C291.797 436.786 292.415 436.128 293.216 435.659C294.02 435.186 294.975 434.949 296.078 434.949C297.181 434.949 298.133 435.186 298.933 435.659C299.738 436.128 300.358 436.786 300.794 437.634C301.229 438.476 301.447 439.461 301.447 440.588C301.447 441.705 301.229 442.688 300.794 443.536C300.358 444.378 299.738 445.036 298.933 445.51C298.133 445.979 297.181 446.213 296.078 446.213ZM296.092 443.869C296.594 443.869 297.013 443.727 297.349 443.443C297.685 443.154 297.939 442.761 298.109 442.264C298.284 441.767 298.372 441.201 298.372 440.567C298.372 439.932 298.284 439.366 298.109 438.869C297.939 438.372 297.685 437.979 297.349 437.69C297.013 437.402 296.594 437.257 296.092 437.257C295.585 437.257 295.159 437.402 294.814 437.69C294.473 437.979 294.215 438.372 294.039 438.869C293.869 439.366 293.784 439.932 293.784 440.567C293.784 441.201 293.869 441.767 294.039 442.264C294.215 442.761 294.473 443.154 294.814 443.443C295.159 443.727 295.585 443.869 296.092 443.869Z" fill="white"/>
<path d="M249.787 298.737H153.764C151.242 298.737 149.198 300.787 149.198 303.303C149.198 305.82 151.242 307.869 153.764 307.869H249.787C256.19 307.869 261.407 313.081 261.407 319.501V378.505C261.407 384.914 256.19 390.125 249.787 390.125H154.219C147.816 390.125 142.599 384.914 142.599 378.505V319.046C142.599 316.518 140.549 314.474 138.021 314.474C135.505 314.474 133.461 316.518 133.461 319.046V378.505C133.461 389.958 142.772 399.263 154.219 399.263H249.787C261.234 399.263 270.545 389.958 270.545 378.505V319.501C270.545 308.042 261.234 298.737 249.787 298.737ZM234.441 363.608C231.666 363.608 229.42 361.357 229.42 358.599C229.42 356.065 227.37 354.021 224.848 354.021C222.326 354.021 220.282 356.065 220.282 358.599C220.282 364.789 224.313 370.017 229.869 371.929V374.514C229.869 377.036 231.919 379.092 234.441 379.092C236.969 379.092 239.008 377.036 239.008 374.514V371.929C244.57 370.017 248.595 364.789 248.595 358.599C248.595 350.779 242.25 344.428 234.441 344.428C231.666 344.428 229.42 342.177 229.42 339.413C229.42 336.643 231.666 334.392 234.441 334.392C237.205 334.392 239.457 336.643 239.457 339.413C239.457 341.935 241.501 343.985 244.029 343.985C246.551 343.985 248.595 341.935 248.595 339.413C248.595 333.211 244.57 327.994 239.008 326.077V323.48C239.008 320.958 236.969 318.908 234.441 318.908C231.919 318.908 229.869 320.958 229.869 323.48V326.077C224.313 327.994 220.282 333.211 220.282 339.413C220.282 347.221 226.633 353.566 234.441 353.566C237.205 353.566 239.457 355.818 239.457 358.599C239.457 361.357 237.205 363.608 234.441 363.608ZM156.303 376.42H202C204.522 376.42 206.566 374.365 206.566 371.848C206.566 369.332 204.522 367.282 202 367.282H156.303C153.781 367.282 151.737 369.332 151.737 371.848C151.737 374.365 153.781 376.42 156.303 376.42ZM156.303 330.724H202C204.522 330.724 206.566 328.674 206.566 326.157C206.566 323.63 204.522 321.585 202 321.585H156.303C153.781 321.585 151.737 323.63 151.737 326.157C151.737 328.674 153.781 330.724 156.303 330.724ZM156.303 353.566H202C204.522 353.566 206.566 351.522 206.566 348.994C206.566 346.472 204.522 344.428 202 344.428H156.303C153.781 344.428 151.737 346.472 151.737 348.994C151.737 351.522 153.781 353.566 156.303 353.566Z" fill="white"/>
</svg>
